<svg id="visual" viewBox="0 0 900 600" width="900" height="600" xmlns="http://www.w3.org/2000/svg" xmlns:xlink="http://www.w3.org/1999/xlink" version="1.1"><path d="M0 37L82 37L82 97L164 97L164 43L245 43L245 55L327 55L327 79L409 79L409 73L491 73L491 97L573 97L573 79L655 79L655 49L736 49L736 43L818 43L818 55L900 55L900 55L900 0L900 0L818 0L818 0L736 0L736 0L655 0L655 0L573 0L573 0L491 0L491 0L409 0L409 0L327 0L327 0L245 0L245 0L164 0L164 0L82 0L82 0L0 0Z" fill="#fa7268"></path><path d="M0 121L82 121L82 175L164 175L164 157L245 157L245 97L327 97L327 169L409 169L409 193L491 193L491 187L573 187L573 193L655 193L655 127L736 127L736 103L818 103L818 133L900 133L900 121L900 53L900 53L818 53L818 41L736 41L736 47L655 47L655 77L573 77L573 95L491 95L491 71L409 71L409 77L327 77L327 53L245 53L245 41L164 41L164 95L82 95L82 35L0 35Z" fill="#ea5e66"></path><path d="M0 283L82 283L82 259L164 259L164 283L245 283L245 247L327 247L327 379L409 379L409 283L491 283L491 433L573 433L573 277L655 277L655 241L736 241L736 391L818 391L818 307L900 307L900 223L900 119L900 131L818 131L818 101L736 101L736 125L655 125L655 191L573 191L573 185L491 185L491 191L409 191L409 167L327 167L327 95L245 95L245 155L164 155L164 173L82 173L82 119L0 119Z" fill="#d84a64"></path><path d="M0 415L82 415L82 403L164 403L164 415L245 415L245 385L327 385L327 505L409 505L409 415L491 415L491 493L573 493L573 361L655 361L655 331L736 331L736 487L818 487L818 457L900 457L900 343L900 221L900 305L818 305L818 389L736 389L736 239L655 239L655 275L573 275L573 431L491 431L491 281L409 281L409 377L327 377L327 245L245 245L245 281L164 281L164 257L82 257L82 281L0 281Z" fill="#c53762"></path><path d="M0 601L82 601L82 601L164 601L164 601L245 601L245 601L327 601L327 601L409 601L409 601L491 601L491 601L573 601L573 601L655 601L655 601L736 601L736 601L818 601L818 601L900 601L900 601L900 341L900 455L818 455L818 485L736 485L736 329L655 329L655 359L573 359L573 491L491 491L491 413L409 413L409 503L327 503L327 383L245 383L245 413L164 413L164 401L82 401L82 413L0 413Z" fill="#b0235f"></path></svg>